<?xml version="1.0" encoding="UTF-8" standalone="no"?>
<!-- Created with Inkscape (http://www.inkscape.org/) -->

<svg
   xmlns:dc="http://purl.org/dc/elements/1.1/"
   xmlns:cc="http://creativecommons.org/ns#"
   xmlns:rdf="http://www.w3.org/1999/02/22-rdf-syntax-ns#"
   xmlns:svg="http://www.w3.org/2000/svg"
   xmlns="http://www.w3.org/2000/svg"
   xmlns:sodipodi="http://sodipodi.sourceforge.net/DTD/sodipodi-0.dtd"
   xmlns:inkscape="http://www.inkscape.org/namespaces/inkscape"
   width="165.42999mm"
   height="165.42999mm"
   viewBox="0 0 165.42999 165.42999"
   version="1.1"
   id="svg1176"
   inkscape:version="0.92.4 (5da689c313, 2019-01-14)"
   sodipodi:docname="Logo Zuly Pizza Color.svg">
  <defs
     id="defs1170">
    <inkscape:path-effect
       effect="skeletal"
       id="path-effect3051"
       is_visible="true"
       pattern="m 262.72716,56.999726 7.39258,-12.877617 7.45606,12.840975 z"
       copytype="repeated"
       prop_scale="1"
       scale_y_rel="false"
       spacing="15"
       normal_offset="0"
       tang_offset="0"
       prop_units="false"
       vertical_pattern="false"
       fuse_tolerance="0" />
    <circle
       style="opacity:1;fill:none;fill-opacity:1;fill-rule:nonzero;stroke:none;stroke-width:0.60000002;stroke-linecap:round;stroke-linejoin:miter;stroke-miterlimit:4;stroke-dasharray:none;stroke-opacity:1"
       id="path2773-6-3-8"
       cx="-347.01047"
       cy="322.11209"
       r="81.275581"
       transform="matrix(-0.89968757,0.43653438,0.43653438,0.89968757,0,0)" />
  </defs>
  <sodipodi:namedview
     id="base"
     pagecolor="#ffffff"
     bordercolor="#666666"
     borderopacity="1.0"
     inkscape:pageopacity="0.0"
     inkscape:pageshadow="2"
     inkscape:zoom="0.90942994"
     inkscape:cx="460.80346"
     inkscape:cy="287.60097"
     inkscape:document-units="mm"
     inkscape:current-layer="layer1"
     showgrid="false"
     inkscape:snap-intersection-paths="true"
     inkscape:snap-smooth-nodes="true"
     inkscape:snap-object-midpoints="true"
     inkscape:window-width="1366"
     inkscape:window-height="705"
     inkscape:window-x="-8"
     inkscape:window-y="-8"
     inkscape:window-maximized="1"
     inkscape:snap-midpoints="false"
     inkscape:snap-others="true"
     inkscape:snap-nodes="true"
     inkscape:snap-bbox="true"
     inkscape:object-nodes="true"
     showguides="true"
     inkscape:guide-bbox="true"
     inkscape:object-paths="true"
     fit-margin-top="0"
     fit-margin-left="0"
     fit-margin-right="0"
     fit-margin-bottom="0"
     inkscape:pagecheckerboard="true">
    <sodipodi:guide
       position="241.2453,45.655592"
       orientation="1,0"
       id="guide2347"
       inkscape:locked="false" />
    <sodipodi:guide
       position="131.80995,-57.788786"
       orientation="0,1"
       id="guide2349"
       inkscape:locked="false" />
  </sodipodi:namedview>
  <metadata
     id="metadata1173">
    <rdf:RDF>
      <cc:Work
         rdf:about="">
        <dc:format>image/svg+xml</dc:format>
        <dc:type
           rdf:resource="http://purl.org/dc/dcmitype/StillImage" />
        <dc:title />
      </cc:Work>
    </rdf:RDF>
  </metadata>
  <g
     inkscape:label="Capa 1"
     inkscape:groupmode="layer"
     id="layer1"
     transform="translate(-326.70028,-28.649115)">
    <path
       style="opacity:1;fill:none;fill-opacity:0.59668513;fill-rule:nonzero;stroke:none;stroke-width:0.9304148;stroke-linecap:round;stroke-linejoin:miter;stroke-miterlimit:4;stroke-dasharray:none;stroke-opacity:0.96132597"
       d="M 384.01561,180.45223 A 79.799268,79.799268 0 0 0 493.0819,209.44171 79.799268,79.799268 0 0 0 522.07138,100.37542 79.799268,79.799268 0 0 0 413.00506,71.385931 79.799268,79.799268 0 0 0 384.01561,180.45223 Z"
       id="path841-9"
       inkscape:connector-curvature="0" />
    <g
       id="g899"
       transform="translate(-43.398925,-16.84191)">
      <g
         transform="translate(-0.25597663)"
         id="g892">
        <path
           inkscape:connector-curvature="0"
           style="opacity:1;fill:#ff9a70;fill-opacity:1;fill-rule:nonzero;stroke:#ff9a70;stroke-width:2.5;stroke-linecap:round;stroke-linejoin:miter;stroke-miterlimit:4;stroke-dasharray:none;stroke-opacity:1"
           d="m 520.56724,139.28329 c 4.51461,2.3007 8.8288,5.13543 12.90333,8.44648 -4.74883,2.29402 -9.56851,4.04305 -14.40027,5.28666 1.04367,-4.5013 1.56752,-9.10428 1.49694,-13.73314 z"
           id="path3087" />
        <path
           inkscape:connector-curvature="0"
           style="opacity:1;fill:#ff9a70;fill-opacity:1;fill-rule:nonzero;stroke:#ff9a70;stroke-width:2.5;stroke-linecap:round;stroke-linejoin:miter;stroke-miterlimit:4;stroke-dasharray:none;stroke-opacity:1"
           d="m 387.05019,152.41898 c -4.82657,-1.26708 -9.63915,-3.03876 -14.38,-5.35431 3.66781,-2.9566 7.52965,-5.52562 11.55697,-7.66473 0.46058,-0.24698 0.92222,-0.48802 1.38485,-0.72319 2.7e-4,0.24059 0.003,0.48125 0.006,0.722 -0.0349,4.39115 0.46396,8.7524 1.43204,13.02023 z"
           id="path3073" />
        <path
           inkscape:connector-curvature="0"
           style="opacity:1;fill:#ff9a70;fill-opacity:1;fill-rule:nonzero;stroke:#ff9a70;stroke-width:2.5;stroke-linecap:round;stroke-linejoin:miter;stroke-miterlimit:4;stroke-dasharray:none;stroke-opacity:1"
           d="m 387.39106,124.83701 c -3.74143,-3.30896 -7.23322,-7.06323 -10.4361,-11.20511 5.11444,-1.10165 10.21016,-1.70743 15.22846,-1.85696 -2.06277,4.19729 -3.68507,8.57658 -4.79236,13.06207 z"
           id="path3071" />
        <path
           inkscape:connector-curvature="0"
           style="opacity:1;fill:#ff9a70;fill-opacity:1;fill-rule:nonzero;stroke:#ff9a70;stroke-width:2.5;stroke-linecap:round;stroke-linejoin:miter;stroke-miterlimit:4;stroke-dasharray:none;stroke-opacity:1"
           d="m 399.76712,99.736752 c -2.10611,-4.583393 -3.86938,-9.444223 -5.25056,-14.524755 5.17146,0.987116 10.1548,2.377093 14.89126,4.130322 -3.52862,3.156071 -6.76703,6.64615 -9.6407,10.394433 z"
           id="path3069" />
        <path
           inkscape:connector-curvature="0"
           style="opacity:1;fill:#ff9a70;fill-opacity:1;fill-rule:nonzero;stroke:#ff9a70;stroke-width:2.5;stroke-linecap:round;stroke-linejoin:miter;stroke-miterlimit:4;stroke-dasharray:none;stroke-opacity:1"
           d="m 420.95188,80.944163 c -0.24567,-5.028574 -0.0553,-10.166691 0.6104,-15.356621 4.39778,2.856241 8.43799,6.02234 12.06185,9.458687 -4.38887,1.505231 -8.63782,3.496476 -12.67225,5.897934 z"
           id="path3067" />
        <path
           inkscape:connector-curvature="0"
           style="opacity:1;fill:#ff9a70;fill-opacity:1;fill-rule:nonzero;stroke:#ff9a70;stroke-width:2.5;stroke-linecap:round;stroke-linejoin:miter;stroke-miterlimit:4;stroke-dasharray:none;stroke-opacity:1"
           d="m 447.28422,72.126571 c 1.54091,-3.889567 3.45298,-7.738213 5.75926,-11.51203 0.44764,-0.726578 0.90902,-1.447503 1.38391,-2.162606 2.77883,4.541941 4.99337,9.189858 6.68322,13.88502 -2.66699,-0.348352 -5.35783,-0.50938 -8.0575,-0.468308 -1.93052,-0.01543 -3.85529,0.07239 -5.76889,0.257929 z"
           id="path3065" />
        <path
           inkscape:connector-curvature="0"
           style="opacity:1;fill:#ff9a70;fill-opacity:1;fill-rule:nonzero;stroke:#ff9a70;stroke-width:2.5;stroke-linecap:round;stroke-linejoin:miter;stroke-miterlimit:4;stroke-dasharray:none;stroke-opacity:1"
           d="m 474.65308,75.828838 c 3.72626,-3.331278 7.85348,-6.388282 12.32395,-9.131756 0.52847,5.210245 0.58562,10.357026 0.21111,15.381609 -3.98146,-2.508895 -8.18508,-4.617033 -12.53506,-6.249853 z"
           id="path3063" />
        <path
           inkscape:connector-curvature="0"
           style="opacity:1;fill:#ff9a70;fill-opacity:1;fill-rule:nonzero;stroke:#ff9a70;stroke-width:2.5;stroke-linecap:round;stroke-linejoin:miter;stroke-miterlimit:4;stroke-dasharray:none;stroke-opacity:1"
           d="m 498.44333,90.887975 c 4.78162,-1.636477 9.79631,-2.90549 14.98634,-3.767781 -1.50228,5.047811 -3.38284,9.862715 -5.6021,14.385976 -2.77919,-3.81475 -5.93253,-7.379004 -9.38424,-10.618195 z"
           id="path3061" />
        <path
           inkscape:connector-curvature="0"
           style="opacity:1;fill:#ff9a70;fill-opacity:1;fill-rule:nonzero;stroke:#ff9a70;stroke-width:2.5;stroke-linecap:round;stroke-linejoin:miter;stroke-miterlimit:4;stroke-dasharray:none;stroke-opacity:1"
           d="m 514.95703,113.78855 c 5.0077,0.28347 10.08059,1.0276 15.16094,2.27166 -3.31338,4.05463 -6.91204,7.70692 -10.75638,10.89813 -0.96728,-4.51503 -2.46074,-8.92982 -4.40456,-13.16979 z"
           id="path3010" />
      </g>
      <g
         id="g867">
        <path
           style="opacity:1;fill:#ffc1a7;fill-opacity:0.90196078;fill-rule:nonzero;stroke:none;stroke-width:10.58267689;stroke-miterlimit:4;stroke-dasharray:none;stroke-opacity:1"
           d="m 1711.4238,293.40039 a 228.46691,228.46692 0 0 0 -228.4668,228.4668 228.46691,228.46692 0 0 0 55.9414,149.77343 l 0.4825,-0.004 102.4765,-276.5918 84.8731,229.16992 68.9609,-155.30859 90.6621,199.42773 0.4121,-0.004 a 228.46691,228.46692 0 0 0 53.125,-146.46289 228.46691,228.46692 0 0 0 -228.4668,-228.4668 z"
           id="path2515-3"
           transform="scale(0.26458333)"
           inkscape:connector-curvature="0" />
        <path
           style="opacity:1;fill:none;fill-opacity:0.4198895;fill-rule:nonzero;stroke:#ff9a70;stroke-width:10.58267689;stroke-miterlimit:4;stroke-dasharray:none;stroke-opacity:1"
           d="M 1538.8979,672.55168 A 228.46691,228.46692 0 0 1 1482.9561,522.77781 228.46691,228.46692 0 0 1 1711.423,294.3109 228.46691,228.46692 0 0 1 1939.8899,522.77781 v 0 0 a 228.46691,228.46692 0 0 1 -53.1236,146.46447"
           id="path2515"
           transform="scale(0.26458333)"
           inkscape:connector-curvature="0" />
        <path
           style="fill:#c1e5d2;fill-opacity:0.90196078;stroke:none;stroke-width:0.26458332px;stroke-linecap:butt;stroke-linejoin:miter;stroke-opacity:1"
           d="m 434.40805,104.52227 -27.18541,73.37536 54.3605,5.2e-4 -0.0661,-0.17828 37.68969,-0.64958 -24.09672,-53.00555 -18.2459,41.09207 z"
           id="path845"
           inkscape:connector-curvature="0" />
        <circle
           style="opacity:1;fill:#44a573;fill-opacity:1;fill-rule:nonzero;stroke:#44a573;stroke-width:2.79999995;stroke-linecap:round;stroke-linejoin:miter;stroke-miterlimit:4;stroke-dasharray:none;stroke-opacity:1"
           id="path2773"
           cx="470.58704"
           cy="154.07504"
           r="3.4810729" />
        <circle
           style="opacity:1;fill:#44a573;fill-opacity:1;fill-rule:nonzero;stroke:#44a573;stroke-width:2.79999995;stroke-linecap:round;stroke-linejoin:miter;stroke-miterlimit:4;stroke-dasharray:none;stroke-opacity:1"
           id="path2773-6"
           cx="426.8381"
           cy="152.82277"
           r="4.2705121" />
        <circle
           style="opacity:1;fill:#44a573;fill-opacity:1;fill-rule:nonzero;stroke:#44a573;stroke-width:2.79999995;stroke-linecap:round;stroke-linejoin:miter;stroke-miterlimit:4;stroke-dasharray:none;stroke-opacity:1"
           id="path2773-6-4"
           cx="482.76624"
           cy="161.91757"
           r="3.4446793" />
        <circle
           style="opacity:1;fill:#44a573;fill-opacity:1;fill-rule:nonzero;stroke:#44a573;stroke-width:2.79999995;stroke-linecap:round;stroke-linejoin:miter;stroke-miterlimit:4;stroke-dasharray:none;stroke-opacity:1"
           id="path2773-6-7"
           cx="439.80469"
           cy="141.64536"
           r="3.9452159" />
        <circle
           style="opacity:1;fill:#44a573;fill-opacity:1;fill-rule:nonzero;stroke:#44a573;stroke-width:2.79999995;stroke-linecap:round;stroke-linejoin:miter;stroke-miterlimit:4;stroke-dasharray:none;stroke-opacity:1"
           id="path2773-8"
           cx="475.32974"
           cy="139.95213"
           r="2.5752625" />
        <circle
           style="opacity:1;fill:#44a573;fill-opacity:1;fill-rule:nonzero;stroke:#44a573;stroke-width:2.5;stroke-linecap:round;stroke-linejoin:miter;stroke-miterlimit:4;stroke-dasharray:none;stroke-opacity:1"
           id="path2773-8-1"
           cx="433.85938"
           cy="126.26229"
           r="2.7532434" />
        <path
           inkscape:connector-curvature="0"
           id="path894"
           style="font-style:normal;font-variant:normal;font-weight:normal;font-stretch:normal;font-size:22.57777786px;line-height:1.25;font-family:'Bungee Inline';-inkscape-font-specification:'Bungee Inline';letter-spacing:0px;word-spacing:0px;fill:#44a573;fill-opacity:1;stroke:none;stroke-width:0.26458332"
           d="m 394.8089,199.94601 h -11.19858 q -0.42898,0 -0.63218,-0.18062 -0.18062,-0.2032 -0.18062,-0.63218 v -3.02542 q 0,-0.42898 0.13547,-0.74506 0.13546,-0.33867 0.42897,-0.65476 l 5.4864,-6.66044 h -4.83164 q -0.42898,0 -0.63218,-0.18063 -0.18062,-0.2032 -0.18062,-0.63217 v -2.73192 q 0,-0.42897 0.18062,-0.6096 0.2032,-0.2032 0.63218,-0.2032 h 10.38578 q 0.42898,0 0.6096,0.2032 0.2032,0.18063 0.2032,0.6096 v 3.36409 q 0,0.45156 -0.13547,0.79023 -0.13547,0.31608 -0.42898,0.63217 l -5.23804,6.34436 h 5.39609 q 0.42898,0 0.6096,0.2032 0.2032,0.18062 0.2032,0.6096 v 2.68675 q 0,0.42898 -0.2032,0.63218 -0.18062,0.18062 -0.6096,0.18062 z m -2.37067,-12.28231 q 0.15805,-0.2032 0.27093,-0.38382 0.11289,-0.2032 0.11289,-0.45155 v -0.36125 q 0,-0.38382 -0.18062,-0.56444 -0.15804,-0.18063 -0.51929,-0.18063 h -6.88622 v 0.22578 h 6.88622 q 0.18062,0 0.31609,0.11289 0.15805,0.0903 0.15805,0.4064 v 0.31609 q 0,0.22578 -0.0903,0.36124 -0.0677,0.13547 -0.22577,0.33867 l -6.61529,8.48925 q -0.15805,0.2032 -0.27094,0.4064 -0.11289,0.18062 -0.11289,0.42897 v 0.36125 q 0,0.38382 0.15805,0.56444 0.18062,0.18062 0.54187,0.18062 h 7.60871 v -0.22577 h -7.60871 q -0.18063,0 -0.33867,-0.0903 -0.13547,-0.11289 -0.13547,-0.42898 v -0.31609 q 0,-0.22578 0.0677,-0.36125 0.0903,-0.13546 0.24835,-0.33866 z" />
        <path
           inkscape:connector-curvature="0"
           id="path896"
           style="font-style:normal;font-variant:normal;font-weight:normal;font-stretch:normal;font-size:22.57777786px;line-height:1.25;font-family:'Bungee Inline';-inkscape-font-specification:'Bungee Inline';letter-spacing:0px;word-spacing:0px;fill:#44a573;fill-opacity:1;stroke:none;stroke-width:0.26458332"
           d="m 412.06185,195.67881 q 0,1.03858 -0.31609,1.89654 -0.29351,0.83538 -1.08373,1.44498 -0.76765,0.58702 -2.12232,0.92568 -1.35466,0.33867 -3.4544,0.33867 -2.09973,0 -3.4544,-0.33867 -1.35466,-0.33866 -2.14488,-0.92568 -0.76765,-0.6096 -1.08374,-1.44498 -0.29351,-0.85796 -0.29351,-1.89654 v -11.176 q 0,-0.42897 0.18062,-0.6096 0.2032,-0.2032 0.63218,-0.2032 h 3.54471 q 0.42898,0 0.6096,0.2032 0.2032,0.18063 0.2032,0.6096 v 10.29547 q 0,0.45156 0.33867,0.76765 0.33867,0.29351 1.51271,0.29351 1.19662,0 1.53529,-0.29351 0.33867,-0.31609 0.33867,-0.76765 v -10.29547 q 0,-0.42897 0.18062,-0.6096 0.2032,-0.2032 0.63218,-0.2032 h 3.43182 q 0.42898,0 0.6096,0.2032 0.2032,0.18063 0.2032,0.6096 z m -11.46951,-9.9568 v 9.41494 q 0,1.35466 0.92569,2.21262 0.94826,0.83538 3.58986,0.83538 2.6416,0 3.58987,-0.83538 0.94827,-0.85796 0.94827,-2.21262 v -9.41494 h -0.22578 v 9.41494 q 0,1.26435 -0.90311,2.05458 -0.90311,0.76764 -3.40925,0.76764 -2.50613,0 -3.40924,-0.76764 -0.88054,-0.79023 -0.88054,-2.05458 v -9.41494 z" />
        <path
           inkscape:connector-curvature="0"
           id="path898"
           style="font-style:normal;font-variant:normal;font-weight:normal;font-stretch:normal;font-size:22.57777786px;line-height:1.25;font-family:'Bungee Inline';-inkscape-font-specification:'Bungee Inline';letter-spacing:0px;word-spacing:0px;fill:#44a573;fill-opacity:1;stroke:none;stroke-width:0.26458332"
           d="m 427.3717,199.94601 h -11.49209 q -0.42898,0 -0.63218,-0.18062 -0.18062,-0.2032 -0.18062,-0.63218 v -14.6304 q 0,-0.42897 0.18062,-0.6096 0.2032,-0.2032 0.63218,-0.2032 h 3.49955 q 0.42898,0 0.6096,0.2032 0.2032,0.18063 0.2032,0.6096 v 11.176 h 3.09316 v -3.6576 q 0,-0.42897 0.18062,-0.6096 0.2032,-0.2032 0.63218,-0.2032 h 3.27378 q 0.42898,0 0.6096,0.2032 0.2032,0.18063 0.2032,0.6096 v 7.112 q 0,0.42898 -0.2032,0.63218 -0.18062,0.18062 -0.6096,0.18062 z m -9.84391,-2.032 h 8.30862 v -4.6736 h -0.22578 v 4.44783 h -7.85707 v -11.96623 h -0.22577 z" />
        <path
           inkscape:connector-curvature="0"
           id="path900"
           style="font-style:normal;font-variant:normal;font-weight:normal;font-stretch:normal;font-size:22.57777786px;line-height:1.25;font-family:'Bungee Inline';-inkscape-font-specification:'Bungee Inline';letter-spacing:0px;word-spacing:0px;fill:#44a573;fill-opacity:1;stroke:none;stroke-width:0.26458332"
           d="m 437.85978,199.94601 h -3.6576 q -0.42898,0 -0.63218,-0.18062 -0.18062,-0.2032 -0.18062,-0.63218 v -2.88995 l -3.4544,-4.62845 q -0.51929,-0.69991 -0.69991,-1.2192 -0.15805,-0.51928 -0.15805,-1.55786 v -4.33494 q 0,-0.42897 0.18063,-0.6096 0.2032,-0.2032 0.63217,-0.2032 h 3.47698 q 0.42898,0 0.6096,0.2032 0.2032,0.18063 0.2032,0.6096 v 3.70276 q 0,0.22578 0.0226,0.47413 0.0226,0.24836 0.18062,0.47414 l 1.03858,1.6256 q 0.11289,0.2032 0.22578,0.29351 0.13546,0.0903 0.31609,0.0903 h 0.22577 q 0.18063,0 0.29351,-0.0903 0.13547,-0.0903 0.24836,-0.29351 l 1.03858,-1.6256 q 0.15804,-0.22578 0.18062,-0.47414 0.0226,-0.24835 0.0226,-0.47413 v -3.70276 q 0,-0.42897 0.18062,-0.6096 0.2032,-0.2032 0.63218,-0.2032 h 3.36409 q 0.42897,0 0.6096,0.2032 0.2032,0.18063 0.2032,0.6096 v 4.33494 q 0,1.03858 -0.18063,1.55786 -0.18062,0.51929 -0.67733,1.2192 l -3.43182,4.65103 v 2.86737 q 0,0.42898 -0.2032,0.63218 -0.18062,0.18062 -0.6096,0.18062 z m -1.55787,-5.8928 q 0.51929,0 0.90311,-0.22577 0.4064,-0.22578 0.76765,-0.72249 l 2.25778,-3.048 q 0.27093,-0.36125 0.29351,-0.79022 0.0452,-0.45156 0.0452,-0.94827 v -2.59645 h -0.22578 v 2.59645 q 0,0.47413 -0.0451,0.92569 -0.0452,0.42898 -0.27093,0.72249 l -2.25778,3.048 q -0.33867,0.42897 -0.69991,0.63217 -0.33867,0.18063 -0.76765,0.18063 h -0.6096 q -0.38382,0 -0.76764,-0.18063 -0.38382,-0.18062 -0.67734,-0.63217 l -2.19004,-3.048 q -0.22578,-0.33867 -0.27093,-0.74507 -0.0452,-0.42898 -0.0452,-0.90311 v -2.59645 h -0.22578 v 2.59645 q 0,0.49671 0.0452,0.94827 0.0451,0.45155 0.29351,0.79022 l 2.19004,3.048 q 0.36125,0.49671 0.74507,0.72249 0.4064,0.22577 0.90311,0.22577 h 0.22578 v 3.8608 h 0.22578 v -3.8608 z" />
        <path
           inkscape:connector-curvature="0"
           id="path902"
           style="font-style:normal;font-variant:normal;font-weight:normal;font-stretch:normal;font-size:22.57777786px;line-height:1.25;font-family:'Bungee Inline';-inkscape-font-specification:'Bungee Inline';letter-spacing:0px;word-spacing:0px;fill:#44a573;fill-opacity:1;stroke:none;stroke-width:0.26458332"
           d="m 454.70104,199.94601 h -3.49956 q -0.42897,0 -0.63217,-0.18062 -0.18063,-0.2032 -0.18063,-0.63218 v -14.6304 q 0,-0.42897 0.18063,-0.6096 0.2032,-0.2032 0.63217,-0.2032 h 6.9088 q 3.07058,0 4.19947,1.2192 1.12889,1.2192 1.12889,3.18347 v 2.88996 q 0,1.96426 -1.12889,3.18346 -1.12889,1.2192 -4.19947,1.2192 h -2.59644 v 3.74791 q 0,0.42898 -0.2032,0.63218 -0.18062,0.18062 -0.6096,0.18062 z m 3.09316,-6.47982 q 1.06115,0 1.71591,-0.22578 0.67733,-0.22577 1.03857,-0.6096 0.36125,-0.4064 0.49672,-0.94826 0.13546,-0.56445 0.13546,-1.2192 v -1.67076 q 0,-0.65475 -0.13546,-1.2192 -0.13547,-0.56444 -0.49672,-0.97084 -0.36124,-0.4064 -1.03857,-0.63218 -0.65476,-0.24836 -1.71591,-0.24836 h -4.8768 v 12.192 h 0.22577 v -4.44782 z m -4.65103,-0.22578 v -7.29262 h 4.65103 q 0.99342,0 1.60302,0.22578 0.63218,0.2032 0.97084,0.58702 0.33867,0.38382 0.45156,0.90311 0.13546,0.51929 0.13546,1.12889 v 1.67076 q 0,0.6096 -0.13546,1.12889 -0.11289,0.49671 -0.45156,0.88053 -0.33866,0.36124 -0.97084,0.56444 -0.6096,0.2032 -1.60302,0.2032 z m 2.32551,-5.32835 v 3.40924 h 2.032 q 0.65476,0 0.85796,-0.33866 0.2032,-0.33867 0.2032,-0.76765 v -1.19662 q 0,-0.42898 -0.2032,-0.76764 -0.2032,-0.33867 -0.85796,-0.33867 z" />
        <path
           inkscape:connector-curvature="0"
           id="path904"
           style="font-style:normal;font-variant:normal;font-weight:normal;font-stretch:normal;font-size:22.57777786px;line-height:1.25;font-family:'Bungee Inline';-inkscape-font-specification:'Bungee Inline';letter-spacing:0px;word-spacing:0px;fill:#44a573;fill-opacity:1;stroke:none;stroke-width:0.1;stroke-miterlimit:4;stroke-dasharray:none"
           d="m 466.23017,199.94601 q -0.42898,0 -0.63218,-0.18062 -0.18062,-0.2032 -0.18062,-0.63218 v -2.68675 q 0,-0.42898 0.18062,-0.6096 0.2032,-0.2032 0.63218,-0.2032 h 2.2352 v -7.58613 h -2.2352 q -0.42898,0 -0.63218,-0.18063 -0.18062,-0.2032 -0.18062,-0.63217 v -2.73192 q 0,-0.42897 0.18062,-0.6096 0.2032,-0.2032 0.63218,-0.2032 h 9.61813 q 0.42898,0 0.6096,0.2032 0.2032,0.18063 0.2032,0.6096 v 2.73192 q 0,0.42897 -0.2032,0.63217 -0.18062,0.18063 -0.6096,0.18063 h -2.19004 v 7.58613 h 2.19004 q 0.42898,0 0.6096,0.2032 0.2032,0.18062 0.2032,0.6096 v 2.68675 q 0,0.42898 -0.2032,0.63218 -0.18062,0.18062 -0.6096,0.18062 z m 8.39893,-2.032 v -0.22577 h -3.4544 v -11.74045 h 3.4544 v -0.22578 h -7.17973 v 0.22578 h 3.49956 v 11.74045 h -3.49956 v 0.22577 z" />
        <path
           inkscape:connector-curvature="0"
           id="path906"
           style="font-style:normal;font-variant:normal;font-weight:normal;font-stretch:normal;font-size:22.57777786px;line-height:1.25;font-family:'Bungee Inline';-inkscape-font-specification:'Bungee Inline';letter-spacing:0px;word-spacing:0px;fill:#44a573;fill-opacity:1;stroke:none;stroke-width:0.26458332"
           d="m 490.94084,199.94601 h -11.19858 q -0.42898,0 -0.63218,-0.18062 -0.18062,-0.2032 -0.18062,-0.63218 v -3.02542 q 0,-0.42898 0.13547,-0.74506 0.13547,-0.33867 0.42898,-0.65476 l 5.4864,-6.66044 h -4.83165 q -0.42898,0 -0.63218,-0.18063 -0.18062,-0.2032 -0.18062,-0.63217 v -2.73192 q 0,-0.42897 0.18062,-0.6096 0.2032,-0.2032 0.63218,-0.2032 h 10.38578 q 0.42898,0 0.6096,0.2032 0.2032,0.18063 0.2032,0.6096 v 3.36409 q 0,0.45156 -0.13547,0.79023 -0.13546,0.31608 -0.42897,0.63217 l -5.23805,6.34436 h 5.39609 q 0.42898,0 0.6096,0.2032 0.2032,0.18062 0.2032,0.6096 v 2.68675 q 0,0.42898 -0.2032,0.63218 -0.18062,0.18062 -0.6096,0.18062 z m -2.37067,-12.28231 q 0.15805,-0.2032 0.27094,-0.38382 0.11289,-0.2032 0.11289,-0.45155 v -0.36125 q 0,-0.38382 -0.18063,-0.56444 -0.15804,-0.18063 -0.51929,-0.18063 h -6.88622 v 0.22578 h 6.88622 q 0.18063,0 0.31609,0.11289 0.15805,0.0903 0.15805,0.4064 v 0.31609 q 0,0.22578 -0.0903,0.36124 -0.0677,0.13547 -0.22578,0.33867 l -6.61529,8.48925 q -0.15804,0.2032 -0.27093,0.4064 -0.11289,0.18062 -0.11289,0.42897 v 0.36125 q 0,0.38382 0.15804,0.56444 0.18062,0.18062 0.54187,0.18062 h 7.60871 v -0.22577 h -7.60871 q -0.18062,0 -0.33867,-0.0903 -0.13546,-0.11289 -0.13546,-0.42898 v -0.31609 q 0,-0.22578 0.0677,-0.36125 0.0903,-0.13546 0.24835,-0.33866 z" />
        <path
           inkscape:connector-curvature="0"
           id="path908"
           style="font-style:normal;font-variant:normal;font-weight:normal;font-stretch:normal;font-size:22.57777786px;line-height:1.25;font-family:'Bungee Inline';-inkscape-font-specification:'Bungee Inline';letter-spacing:0px;word-spacing:0px;fill:#44a573;fill-opacity:1;stroke:none;stroke-width:0.26458332"
           d="m 505.71341,199.94601 h -11.19858 q -0.42898,0 -0.63218,-0.18062 -0.18062,-0.2032 -0.18062,-0.63218 v -3.02542 q 0,-0.42898 0.13547,-0.74506 0.13546,-0.33867 0.42897,-0.65476 l 5.4864,-6.66044 h -4.83164 q -0.42898,0 -0.63218,-0.18063 -0.18062,-0.2032 -0.18062,-0.63217 v -2.73192 q 0,-0.42897 0.18062,-0.6096 0.2032,-0.2032 0.63218,-0.2032 h 10.38578 q 0.42898,0 0.6096,0.2032 0.2032,0.18063 0.2032,0.6096 v 3.36409 q 0,0.45156 -0.13547,0.79023 -0.13547,0.31608 -0.42898,0.63217 l -5.23804,6.34436 h 5.39609 q 0.42898,0 0.6096,0.2032 0.2032,0.18062 0.2032,0.6096 v 2.68675 q 0,0.42898 -0.2032,0.63218 -0.18062,0.18062 -0.6096,0.18062 z m -2.37067,-12.28231 q 0.15805,-0.2032 0.27093,-0.38382 0.11289,-0.2032 0.11289,-0.45155 v -0.36125 q 0,-0.38382 -0.18062,-0.56444 -0.15804,-0.18063 -0.51929,-0.18063 h -6.88622 v 0.22578 h 6.88622 q 0.18062,0 0.31609,0.11289 0.15805,0.0903 0.15805,0.4064 v 0.31609 q 0,0.22578 -0.0903,0.36124 -0.0677,0.13547 -0.22577,0.33867 l -6.61529,8.48925 q -0.15805,0.2032 -0.27094,0.4064 -0.11288,0.18062 -0.11288,0.42897 v 0.36125 q 0,0.38382 0.15804,0.56444 0.18062,0.18062 0.54187,0.18062 h 7.60871 v -0.22577 h -7.60871 q -0.18063,0 -0.33867,-0.0903 -0.13547,-0.11289 -0.13547,-0.42898 v -0.31609 q 0,-0.22578 0.0677,-0.36125 0.0903,-0.13546 0.24835,-0.33866 z" />
        <path
           inkscape:connector-curvature="0"
           id="path910"
           style="font-style:normal;font-variant:normal;font-weight:normal;font-stretch:normal;font-size:22.57777786px;line-height:1.25;font-family:'Bungee Inline';-inkscape-font-specification:'Bungee Inline';letter-spacing:0px;word-spacing:0px;fill:#44a573;fill-opacity:1;stroke:none;stroke-width:0.26458332"
           d="m 511.40654,193.10495 q 0,-0.6096 0.0903,-1.12889 0.11289,-0.51929 0.27093,-0.97085 l 1.44498,-3.70275 q 0.22578,-0.56445 0.49671,-0.94827 0.27093,-0.4064 0.94827,-0.4064 h 2.21262 q 0.63218,0 0.90311,0.4064 0.27093,0.38382 0.51929,0.97085 l 1.55786,3.68017 q 0.15805,0.45156 0.24836,0.97085 0.11289,0.51929 0.11289,1.12889 v 0.69991 h -8.80533 z m 3.61244,-4.6736 -1.06116,3.43182 h 3.54472 l -1.06116,-3.43182 q -0.0903,-0.2032 -0.2032,-0.29351 -0.0903,-0.0903 -0.22578,-0.0903 h -0.56444 q -0.13547,0 -0.24836,0.0903 -0.0903,0.0903 -0.18062,0.29351 z m 5.19289,9.48266 h 0.22578 v -4.80906 q 0,-0.63218 -0.11289,-1.15147 -0.0903,-0.54187 -0.27094,-1.03858 l -1.55786,-3.68017 q -0.27094,-0.65476 -0.58702,-1.08374 -0.29352,-0.42898 -1.03858,-0.42898 h -2.21262 q -0.76765,0 -1.08374,0.42898 -0.31609,0.42898 -0.56444,1.06116 l -1.44498,3.70275 q -0.18062,0.49671 -0.29351,1.03858 -0.0903,0.51929 -0.0903,1.15147 v 4.80906 h 0.22578 v -3.88337 h 8.80533 z m -6.47982,1.2192 q 0,0.42898 -0.2032,0.63218 -0.18063,0.18062 -0.6096,0.18062 h -3.31894 q -0.42897,0 -0.63217,-0.18062 -0.18063,-0.2032 -0.18063,-0.63218 v -5.96053 q 0,-0.67733 0.2032,-1.55787 0.22578,-0.88053 0.67734,-2.05457 l 1.96426,-5.12516 q 0.13547,-0.38382 0.4064,-0.56444 0.29351,-0.18063 0.74507,-0.18063 h 6.07342 q 0.42898,0 0.69991,0.18063 0.29351,0.18062 0.42898,0.56444 l 1.96427,5.12516 q 0.45155,1.17404 0.65475,2.05457 0.22578,0.88054 0.22578,1.55787 v 5.96053 q 0,0.42898 -0.2032,0.63218 -0.18062,0.18062 -0.6096,0.18062 h -3.40924 q -0.45156,0 -0.67734,-0.18062 -0.2032,-0.2032 -0.2032,-0.63218 v -3.16088 h -3.99626 z" />
        <path
           id="path2612"
           style="fill:none;fill-opacity:0.20994478;stroke:#44a573;stroke-width:2.79999995;stroke-linecap:round;stroke-linejoin:miter;stroke-miterlimit:4;stroke-dasharray:none;stroke-opacity:1"
           d="M 451.17702,177.966 H 491.559 m -37.03522,-8.59921 h 40.34919 m -78.0112,-4.3e-4 37.66201,4.3e-4 m -41.00397,-8.53121 h 41.28164 m -47.57852,17.062 27.18543,-73.37551 22.64603,59.78828 m -5.87737,13.65521 23.93296,-53.90077 24.08762,52.99834"
           inkscape:connector-curvature="0" />
      </g>
    </g>
  </g>
</svg>
