<?xml version="1.0" encoding="UTF-8" standalone="no"?>
<!-- Created with Inkscape (http://www.inkscape.org/) -->

<svg
   xmlns:dc="http://purl.org/dc/elements/1.1/"
   xmlns:cc="http://creativecommons.org/ns#"
   xmlns:rdf="http://www.w3.org/1999/02/22-rdf-syntax-ns#"
   xmlns:svg="http://www.w3.org/2000/svg"
   xmlns="http://www.w3.org/2000/svg"
   xmlns:sodipodi="http://sodipodi.sourceforge.net/DTD/sodipodi-0.dtd"
   xmlns:inkscape="http://www.inkscape.org/namespaces/inkscape"
   width="625.24725"
   height="625.24725"
   viewBox="0 0 165.43001 165.43002"
   version="1.1"
   id="svg1176"
   inkscape:version="0.92.3 (2405546, 2018-03-11)"
   sodipodi:docname="Logo Zuly Pizza Favicon.svg"
   inkscape:export-filename="/home/hector/Downloads/Logo Zuly Pizza Favicon.svg.png"
   inkscape:export-xdpi="37.619999"
   inkscape:export-ydpi="37.619999">
  <defs
     id="defs1170">
    <inkscape:path-effect
       effect="skeletal"
       id="path-effect3051"
       is_visible="true"
       pattern="m 262.72716,56.999726 7.39258,-12.877617 7.45606,12.840975 z"
       copytype="repeated"
       prop_scale="1"
       scale_y_rel="false"
       spacing="15"
       normal_offset="0"
       tang_offset="0"
       prop_units="false"
       vertical_pattern="false"
       fuse_tolerance="0" />
    <circle
       style="opacity:1;fill:none;fill-opacity:1;fill-rule:nonzero;stroke:none;stroke-width:0.60000002;stroke-linecap:round;stroke-linejoin:miter;stroke-miterlimit:4;stroke-dasharray:none;stroke-opacity:1"
       id="path2773-6-3-8"
       cx="-347.01047"
       cy="322.11209"
       r="81.275581"
       transform="matrix(-0.89968757,0.43653438,0.43653438,0.89968757,0,0)" />
  </defs>
  <sodipodi:namedview
     id="base"
     pagecolor="#ffffff"
     bordercolor="#666666"
     borderopacity="1.0"
     inkscape:pageopacity="0.0"
     inkscape:pageshadow="2"
     inkscape:zoom="0.7472722"
     inkscape:cx="255.18883"
     inkscape:cy="334.44672"
     inkscape:document-units="mm"
     inkscape:current-layer="layer1"
     showgrid="false"
     inkscape:snap-intersection-paths="true"
     inkscape:snap-smooth-nodes="true"
     inkscape:snap-object-midpoints="true"
     inkscape:window-width="1366"
     inkscape:window-height="708"
     inkscape:window-x="0"
     inkscape:window-y="36"
     inkscape:window-maximized="1"
     inkscape:snap-midpoints="false"
     inkscape:snap-others="true"
     inkscape:snap-nodes="true"
     inkscape:snap-bbox="true"
     inkscape:object-nodes="true"
     showguides="true"
     inkscape:guide-bbox="true"
     inkscape:object-paths="true"
     fit-margin-top="0"
     fit-margin-left="0"
     fit-margin-right="0"
     fit-margin-bottom="0"
     inkscape:pagecheckerboard="true"
     units="px">
    <sodipodi:guide
       position="197.4497,74.249081"
       orientation="1,0"
       id="guide2347"
       inkscape:locked="false" />
    <sodipodi:guide
       position="88.014325,-29.195302"
       orientation="0,1"
       id="guide2349"
       inkscape:locked="false" />
  </sodipodi:namedview>
  <metadata
     id="metadata1173">
    <rdf:RDF>
      <cc:Work
         rdf:about="">
        <dc:format>image/svg+xml</dc:format>
        <dc:type
           rdf:resource="http://purl.org/dc/dcmitype/StillImage" />
        <dc:title />
      </cc:Work>
    </rdf:RDF>
  </metadata>
  <g
     inkscape:label="Capa 1"
     inkscape:groupmode="layer"
     id="layer1"
     transform="translate(-370.49591,-57.242605)">
    <path
       style="opacity:1;fill:none;fill-opacity:0.59668513;fill-rule:nonzero;stroke:none;stroke-width:0.9304148;stroke-linecap:round;stroke-linejoin:miter;stroke-miterlimit:4;stroke-dasharray:none;stroke-opacity:0.96132597"
       d="M 384.01561,180.45223 A 79.799268,79.799268 0 0 0 493.0819,209.44171 79.799268,79.799268 0 0 0 522.07138,100.37542 79.799268,79.799268 0 0 0 413.00506,71.385931 79.799268,79.799268 0 0 0 384.01561,180.45223 Z"
       id="path841-9"
       inkscape:connector-curvature="0" />
    <g
       id="g1564"
       transform="translate(0.39669893,22.202025)">
      <g
         id="g1539">
        <path
           style="opacity:1;fill:#ffc1a7;fill-opacity:1;fill-rule:nonzero;stroke:none;stroke-width:10.58267689;stroke-miterlimit:4;stroke-dasharray:none;stroke-opacity:1"
           d="m 1711.4238,293.40039 a 228.46691,228.46692 0 0 0 -228.4668,228.4668 228.46691,228.46692 0 0 0 55.9414,149.77343 l 0.4825,-0.004 102.4765,-276.5918 84.8731,229.16992 68.9609,-155.30859 90.6621,199.42773 0.4121,-0.004 a 228.46691,228.46692 0 0 0 53.125,-146.46289 228.46691,228.46692 0 0 0 -228.4668,-228.4668 z"
           id="path2515-3"
           transform="scale(0.26458333)"
           inkscape:connector-curvature="0" />
        <path
           style="opacity:1;fill:none;fill-opacity:0.4198895;fill-rule:nonzero;stroke:#ff9a70;stroke-width:10.58267689;stroke-miterlimit:4;stroke-dasharray:none;stroke-opacity:1"
           d="M 1538.8979,672.55168 A 228.46691,228.46692 0 0 1 1482.9561,522.77781 228.46691,228.46692 0 0 1 1711.423,294.3109 228.46691,228.46692 0 0 1 1939.8899,522.77781 v 0 0 a 228.46691,228.46692 0 0 1 -53.1236,146.46447"
           id="path2515"
           transform="scale(0.26458333)"
           inkscape:connector-curvature="0" />
        <path
           style="fill:#c1e5d2;fill-opacity:1;stroke:none;stroke-width:0.26458332px;stroke-linecap:butt;stroke-linejoin:miter;stroke-opacity:1"
           d="m 434.40805,104.52227 -27.18541,73.37536 54.3605,5.2e-4 -0.0661,-0.17828 37.68969,-0.64958 -24.09672,-53.00555 -18.2459,41.09207 z"
           id="path845"
           inkscape:connector-curvature="0" />
        <circle
           style="opacity:1;fill:#44a573;fill-opacity:1;fill-rule:nonzero;stroke:#44a573;stroke-width:2.79999995;stroke-linecap:round;stroke-linejoin:miter;stroke-miterlimit:4;stroke-dasharray:none;stroke-opacity:1"
           id="path2773"
           cx="470.58704"
           cy="154.07504"
           r="3.4810729" />
        <circle
           style="opacity:1;fill:#44a573;fill-opacity:1;fill-rule:nonzero;stroke:#44a573;stroke-width:2.79999995;stroke-linecap:round;stroke-linejoin:miter;stroke-miterlimit:4;stroke-dasharray:none;stroke-opacity:1"
           id="path2773-6"
           cx="426.8381"
           cy="152.82277"
           r="4.2705121" />
        <circle
           style="opacity:1;fill:#44a573;fill-opacity:1;fill-rule:nonzero;stroke:#44a573;stroke-width:2.79999995;stroke-linecap:round;stroke-linejoin:miter;stroke-miterlimit:4;stroke-dasharray:none;stroke-opacity:1"
           id="path2773-6-4"
           cx="482.76624"
           cy="161.91757"
           r="3.4446793" />
        <circle
           style="opacity:1;fill:#44a573;fill-opacity:1;fill-rule:nonzero;stroke:#44a573;stroke-width:2.79999995;stroke-linecap:round;stroke-linejoin:miter;stroke-miterlimit:4;stroke-dasharray:none;stroke-opacity:1"
           id="path2773-6-7"
           cx="439.80469"
           cy="141.64536"
           r="3.9452159" />
        <circle
           style="opacity:1;fill:#44a573;fill-opacity:1;fill-rule:nonzero;stroke:#44a573;stroke-width:2.79999995;stroke-linecap:round;stroke-linejoin:miter;stroke-miterlimit:4;stroke-dasharray:none;stroke-opacity:1"
           id="path2773-8"
           cx="475.32974"
           cy="139.95213"
           r="2.5752625" />
        <g
           id="g892"
           transform="translate(-0.25597663)">
          <path
             id="path3087"
             d="m 520.56724,139.28329 c 4.51461,2.3007 8.8288,5.13543 12.90333,8.44648 -4.74883,2.29402 -9.56851,4.04305 -14.40027,5.28666 1.04367,-4.5013 1.56752,-9.10428 1.49694,-13.73314 z"
             style="opacity:1;fill:#ff9a70;fill-opacity:1;fill-rule:nonzero;stroke:#ff9a70;stroke-width:2.5;stroke-linecap:round;stroke-linejoin:miter;stroke-miterlimit:4;stroke-dasharray:none;stroke-opacity:1"
             inkscape:connector-curvature="0" />
          <path
             id="path3073"
             d="m 387.05019,152.41898 c -4.82657,-1.26708 -9.63915,-3.03876 -14.38,-5.35431 3.66781,-2.9566 7.52965,-5.52562 11.55697,-7.66473 0.46058,-0.24698 0.92222,-0.48802 1.38485,-0.72319 2.7e-4,0.24059 0.003,0.48125 0.006,0.722 -0.0349,4.39115 0.46396,8.7524 1.43204,13.02023 z"
             style="opacity:1;fill:#ff9a70;fill-opacity:1;fill-rule:nonzero;stroke:#ff9a70;stroke-width:2.5;stroke-linecap:round;stroke-linejoin:miter;stroke-miterlimit:4;stroke-dasharray:none;stroke-opacity:1"
             inkscape:connector-curvature="0" />
          <path
             id="path3071"
             d="m 387.39106,124.83701 c -3.74143,-3.30896 -7.23322,-7.06323 -10.4361,-11.20511 5.11444,-1.10165 10.21016,-1.70743 15.22846,-1.85696 -2.06277,4.19729 -3.68507,8.57658 -4.79236,13.06207 z"
             style="opacity:1;fill:#ff9a70;fill-opacity:1;fill-rule:nonzero;stroke:#ff9a70;stroke-width:2.5;stroke-linecap:round;stroke-linejoin:miter;stroke-miterlimit:4;stroke-dasharray:none;stroke-opacity:1"
             inkscape:connector-curvature="0" />
          <path
             id="path3069"
             d="m 399.76712,99.736752 c -2.10611,-4.583393 -3.86938,-9.444223 -5.25056,-14.524755 5.17146,0.987116 10.1548,2.377093 14.89126,4.130322 -3.52862,3.156071 -6.76703,6.64615 -9.6407,10.394433 z"
             style="opacity:1;fill:#ff9a70;fill-opacity:1;fill-rule:nonzero;stroke:#ff9a70;stroke-width:2.5;stroke-linecap:round;stroke-linejoin:miter;stroke-miterlimit:4;stroke-dasharray:none;stroke-opacity:1"
             inkscape:connector-curvature="0" />
          <path
             id="path3067"
             d="m 420.95188,80.944163 c -0.24567,-5.028574 -0.0553,-10.166691 0.6104,-15.356621 4.39778,2.856241 8.43799,6.02234 12.06185,9.458687 -4.38887,1.505231 -8.63782,3.496476 -12.67225,5.897934 z"
             style="opacity:1;fill:#ff9a70;fill-opacity:1;fill-rule:nonzero;stroke:#ff9a70;stroke-width:2.5;stroke-linecap:round;stroke-linejoin:miter;stroke-miterlimit:4;stroke-dasharray:none;stroke-opacity:1"
             inkscape:connector-curvature="0" />
          <path
             id="path3065"
             d="m 447.28422,72.126571 c 1.54091,-3.889567 3.45298,-7.738213 5.75926,-11.51203 0.44764,-0.726578 0.90902,-1.447503 1.38391,-2.162606 2.77883,4.541941 4.99337,9.189858 6.68322,13.88502 -2.66699,-0.348352 -5.35783,-0.50938 -8.0575,-0.468308 -1.93052,-0.01543 -3.85529,0.07239 -5.76889,0.257929 z"
             style="opacity:1;fill:#ff9a70;fill-opacity:1;fill-rule:nonzero;stroke:#ff9a70;stroke-width:2.5;stroke-linecap:round;stroke-linejoin:miter;stroke-miterlimit:4;stroke-dasharray:none;stroke-opacity:1"
             inkscape:connector-curvature="0" />
          <path
             id="path3063"
             d="m 474.65308,75.828838 c 3.72626,-3.331278 7.85348,-6.388282 12.32395,-9.131756 0.52847,5.210245 0.58562,10.357026 0.21111,15.381609 -3.98146,-2.508895 -8.18508,-4.617033 -12.53506,-6.249853 z"
             style="opacity:1;fill:#ff9a70;fill-opacity:1;fill-rule:nonzero;stroke:#ff9a70;stroke-width:2.5;stroke-linecap:round;stroke-linejoin:miter;stroke-miterlimit:4;stroke-dasharray:none;stroke-opacity:1"
             inkscape:connector-curvature="0" />
          <path
             id="path3061"
             d="m 498.44333,90.887975 c 4.78162,-1.636477 9.79631,-2.90549 14.98634,-3.767781 -1.50228,5.047811 -3.38284,9.862715 -5.6021,14.385976 -2.77919,-3.81475 -5.93253,-7.379004 -9.38424,-10.618195 z"
             style="opacity:1;fill:#ff9a70;fill-opacity:1;fill-rule:nonzero;stroke:#ff9a70;stroke-width:2.5;stroke-linecap:round;stroke-linejoin:miter;stroke-miterlimit:4;stroke-dasharray:none;stroke-opacity:1"
             inkscape:connector-curvature="0" />
          <path
             id="path3010"
             d="m 514.95703,113.78855 c 5.0077,0.28347 10.08059,1.0276 15.16094,2.27166 -3.31338,4.05463 -6.91204,7.70692 -10.75638,10.89813 -0.96728,-4.51503 -2.46074,-8.92982 -4.40456,-13.16979 z"
             style="opacity:1;fill:#ff9a70;fill-opacity:1;fill-rule:nonzero;stroke:#ff9a70;stroke-width:2.5;stroke-linecap:round;stroke-linejoin:miter;stroke-miterlimit:4;stroke-dasharray:none;stroke-opacity:1"
             inkscape:connector-curvature="0" />
        </g>
        <circle
           style="opacity:1;fill:#44a573;fill-opacity:1;fill-rule:nonzero;stroke:#44a573;stroke-width:2.5;stroke-linecap:round;stroke-linejoin:miter;stroke-miterlimit:4;stroke-dasharray:none;stroke-opacity:1"
           id="path2773-8-1"
           cx="433.85938"
           cy="126.26229"
           r="2.7532434" />
        <path
           id="path2612"
           style="fill:none;fill-opacity:0.20994478;stroke:#44a573;stroke-width:2.79999995;stroke-linecap:round;stroke-linejoin:miter;stroke-miterlimit:4;stroke-dasharray:none;stroke-opacity:1"
           d="M 451.17702,177.966 H 491.559 m -37.03522,-8.59921 h 40.34919 m -78.0112,-4.3e-4 37.66201,4.3e-4 m -41.00397,-8.53121 h 41.28164 m -47.57852,17.062 27.18543,-73.37551 22.64603,59.78828 m -5.87737,13.65521 23.93296,-53.90077 24.08762,52.99834"
           inkscape:connector-curvature="0" />
      </g>
    </g>
  </g>
</svg>
